<svg width="32" height="40" viewBox="0 0 32 40" fill="none" xmlns="http://www.w3.org/2000/svg">
<path d="M26 3H24C24 2.20435 23.6839 1.44129 23.1213 0.87868C22.5587 0.316071 21.7956 0 21 0H11C10.2044 0 9.44129 0.316071 8.87868 0.87868C8.31607 1.44129 8 2.20435 8 3H6C4.4087 3 2.88258 3.63214 1.75736 4.75736C0.632141 5.88258 0 7.4087 0 9V34C0 35.5913 0.632141 37.1174 1.75736 38.2426C2.88258 39.3679 4.4087 40 6 40H26C27.5913 40 29.1174 39.3679 30.2426 38.2426C31.3679 37.1174 32 35.5913 32 34V9C32 7.4087 31.3679 5.88258 30.2426 4.75736C29.1174 3.63214 27.5913 3 26 3ZM12 3H20C20.2652 3 20.5196 3.10536 20.7071 3.29289C20.8946 3.48043 21 3.73478 21 4V5C21 5.26522 20.8946 5.51957 20.7071 5.70711C20.5196 5.89464 20.2652 6 20 6H12C11.7348 6 11.4804 5.89464 11.2929 5.70711C11.1054 5.51957 11 5.26522 11 5V4C11 3.73478 11.1054 3.48043 11.2929 3.29289C11.4804 3.10536 11.7348 3 12 3V3ZM29 34C29 34.7956 28.6839 35.5587 28.1213 36.1213C27.5587 36.6839 26.7956 37 26 37H6C5.20435 37 4.44129 36.6839 3.87868 36.1213C3.31607 35.5587 3 34.7956 3 34V9C3 8.20435 3.31607 7.44129 3.87868 6.87868C4.44129 6.31607 5.20435 6 6 6H8C8 6.79565 8.31607 7.55871 8.87868 8.12132C9.44129 8.68393 10.2044 9 11 9H21C21.7956 9 22.5587 8.68393 23.1213 8.12132C23.6839 7.55871 24 6.79565 24 6H26C26.7956 6 27.5587 6.31607 28.1213 6.87868C28.6839 7.44129 29 8.20435 29 9V34Z" />
<path d="M15.5 28H9.5C9.10218 28 8.72065 28.158 8.43934 28.4393C8.15804 28.7206 8 29.1022 8 29.5C8 29.8978 8.15804 30.2794 8.43934 30.5607C8.72065 30.842 9.10218 31 9.5 31H15.5C15.8978 31 16.2794 30.842 16.5607 30.5607C16.842 30.2794 17 29.8978 17 29.5C17 29.1022 16.842 28.7206 16.5607 28.4393C16.2794 28.158 15.8978 28 15.5 28Z" />
<path d="M22.5 21H9.5C9.10218 21 8.72065 21.158 8.43934 21.4393C8.15804 21.7206 8 22.1022 8 22.5C8 22.8978 8.15804 23.2794 8.43934 23.5607C8.72065 23.842 9.10218 24 9.5 24H22.5C22.8978 24 23.2794 23.842 23.5607 23.5607C23.842 23.2794 24 22.8978 24 22.5C24 22.1022 23.842 21.7206 23.5607 21.4393C23.2794 21.158 22.8978 21 22.5 21V21Z" />
<path d="M22.5 14H9.5C9.10218 14 8.72065 14.158 8.43934 14.4393C8.15804 14.7206 8 15.1022 8 15.5C8 15.8978 8.15804 16.2794 8.43934 16.5607C8.72065 16.842 9.10218 17 9.5 17H22.5C22.8978 17 23.2794 16.842 23.5607 16.5607C23.842 16.2794 24 15.8978 24 15.5C24 15.1022 23.842 14.7206 23.5607 14.4393C23.2794 14.158 22.8978 14 22.5 14Z" />
</svg>
