<svg viewBox="0 0 457 512"  xmlns="http://www.w3.org/2000/svg">
<path d="M397.197 55.4607H381.773V38.6314C381.773 17.3209 364.958 0 344.265 0C323.559 0 306.758 17.3209 306.758 38.6314V55.4466H268.267V38.6314C268.267 17.3209 251.452 0 230.759 0C210.067 0 193.252 17.3209 193.252 38.6314V55.4466H154.761V38.6314C154.761 17.3209 137.945 0 117.253 0C96.5605 0 79.7453 17.3209 79.7453 38.6314V55.4466H60.0503C27.1363 55.4466 0.347197 82.2358 0.347197 115.15V452.297C0.347197 485.211 27.1363 512 60.0503 512H397.197C430.125 512 456.901 485.211 456.901 452.297V115.15C456.901 82.2498 430.111 55.4607 397.197 55.4607ZM327.829 38.6314C327.829 28.9525 335.204 21.0717 344.265 21.0717C353.34 21.0717 360.701 28.9525 360.701 38.6314V107.409C360.701 117.088 353.34 124.969 344.265 124.969C335.204 124.969 327.829 117.088 327.829 107.409V38.6314ZM214.323 38.6314C214.323 28.9525 221.698 21.0717 230.759 21.0717C239.82 21.0717 247.195 28.9525 247.195 38.6314V107.409C247.195 117.088 239.82 124.969 230.759 124.969C221.698 124.969 214.323 117.088 214.323 107.409V38.6314ZM100.803 38.6314C100.803 28.9525 108.178 21.0717 117.239 21.0717C126.3 21.0717 133.675 28.9525 133.675 38.6314V107.409C133.675 117.088 126.3 124.969 117.239 124.969C108.178 124.969 100.803 117.088 100.803 107.409V38.6314ZM432.545 452.297C432.545 465.853 410.754 492.063 397.197 492.063H60.0503C46.4942 492.063 22.0135 465.853 22.0135 452.297V138.08H432.545V452.297Z" />
<path d="M313.764 279.595L304.785 216.735C304.047 211.581 297.713 209.44 294.008 213.145L280.93 226.223C264.112 216.078 245.019 210.739 225.387 210.739C166.347 210.739 118.945 256.949 117.47 315.94C117.389 319.164 119.733 321.93 122.921 322.389L148.295 326.016C152.078 326.568 155.597 323.598 155.545 319.642C155.018 280.709 186.464 248.838 225.387 248.838C234.812 248.838 244.126 250.754 252.734 254.419L240.127 267.025C236.445 270.707 238.535 277.061 243.717 277.803L306.577 286.782C310.719 287.406 314.358 283.804 313.764 279.595Z" />
<path d="M328.757 316.321L303.401 312.7C300.125 312.285 296.152 315.092 296.152 319.533C296.152 358.048 264.818 389.382 226.303 389.382C216.927 389.382 207.656 387.485 199.081 383.857L211.284 371.653C214.966 367.972 212.876 361.618 207.694 360.876L144.834 351.89C140.705 351.301 137.049 354.841 137.647 359.078L146.626 421.938C147.365 427.097 153.693 429.224 157.403 425.528L170.797 412.14C187.534 422.192 206.615 427.481 226.303 427.481C285.058 427.481 332.453 381.501 334.207 322.801C334.301 319.571 331.957 316.78 328.757 316.321Z" />
</svg>
